# xmcd
#
# Track frame offsets:
#	150
#	19334
#	31279
#	45016
#	60366
#	74721
#	91664
#	105785
#	118883
#	133936
#	148820
#	160016
#	175483
#	188510
#	201889
#	213003
#	227610
#	243444
#
# Disc length: 3582 seconds
#
# Revision: 0
# Processed by: cddbd v1.4PL0 Copyright (c) Steve Scherf et al.
# Submitted via: dBpowerAMP V4.0
#
DISCID=ee0dfc12
DTITLE=Various Artist - Drews Famous Country Party Music
DYEAR=1900
DGENRE=Country
TTITLE0=Whose Bed Have Your Boots Been Under
TTITLE1=Little Bitty
TTITLE2=Watermelon Crawl
TTITLE3=My Maria
TTITLE4=Cotton Eyed Joe
TTITLE5=Tell Me Why
TTITLE6=I Like It, I Love It
TTITLE7=Don't Rock the Jukebox
TTITLE8=Boot Scootin Boogie
TTITLE9=Down At The Twist And Shout
TTITLE10=Chattoochee
TTITLE11=Walking To Jerusalum
TTITLE12=Be My Baby Tonight
TTITLE13=Little Miss Honky Tonk
TTITLE14=Sold
TTITLE15=All My Ex's Live In Texas
TTITLE16=The Devil Went Down To Georgia
TTITLE17=Wild Wild West
EXTD=
EXTT0=
EXTT1=
EXTT2=
EXTT3=
EXTT4=
EXTT5=
EXTT6=
EXTT7=
EXTT8=
EXTT9=
EXTT10=
EXTT11=
EXTT12=
EXTT13=
EXTT14=
EXTT15=
EXTT16=
EXTT17=
PLAYORDER=
